<svg xmlns="http://www.w3.org/2000/svg" width="56.917" height="21" viewBox="0 0 56.917 21">
  <path id="Subtraction_2" data-name="Subtraction 2" d="M11.48,20c-3.829,0-4.56-2.723-4.667-3.269a5.552,5.552,0,0,1-.91.064,19.937,19.937,0,0,1-3.008-.3,8.081,8.081,0,0,1-2.244-.589,3.683,3.683,0,0,1-.6-2.739,12.428,12.428,0,0,1,.376-1.607A7.559,7.559,0,0,0,.8,9.311c.006-.325,0-.622-.008-.884a2.68,2.68,0,0,1,.968-2.656,12.926,12.926,0,0,0,3,.367l1.222-1.2c.011,0,1.23.007,2.213.007.583,0,.98,0,1.178-.007h.077a9.941,9.941,0,0,1,1.572.181c.179.035,4.372.847,5.116,1.022a24.215,24.215,0,0,0,2.52.316l7.117.24,16.648.932-6.17-3.774a17.5,17.5,0,0,0-7.713-2.57c-.986-.061-2.247-.092-3.75-.092-4.08,0-8.988.229-10.366.347a4.62,4.62,0,0,0-2.551.932L10.343,3.9h-.037c-.506.012-1.463.031-2.186.031A6.184,6.184,0,0,1,7.21,3.9,14.39,14.39,0,0,1,5.788,2.792l.068-.048-.629-.589a.188.188,0,0,1-.017-.169c.038-.1.181-.236.646-.331.061-.012.151-.033.269-.059A83.593,83.593,0,0,1,23.455,0c.985,0,2,.012,3.013.035,5.721.133,6.455.847,6.462.854a77.926,77.926,0,0,1,9.154,4.682,4.362,4.362,0,0,1,.676-.051,8.988,8.988,0,0,1,1.761.229c.257.051.523.1.794.146.185.03.531.068.968.117,2.3.257,7.081.792,9.024,2.091l.025.019c.295.231.573.449.573,2.424a21.781,21.781,0,0,1-.269,3.5c-.006,0-.424.02-.525.212a.283.283,0,0,0,.046.288c.052.082.1.154.148.218.215.3.323.458,0,.872a1.592,1.592,0,0,0-.236.452c-.109.289-.2.518-.841.7a14.039,14.039,0,0,0-1.642.58c-.115.047-.2.081-.243.1a.227.227,0,0,1-.07.009c-.241,0-.742-.22-.768-.51-.025-.274-.414-.3-.533-.3h-.035a3.629,3.629,0,0,1-.764,1.34,4.214,4.214,0,0,1-3.3,1.34,4.688,4.688,0,0,1-4.428-2.885l-.927.206-.239.294-24.261.118a1.521,1.521,0,0,0-.641-.224.312.312,0,0,0-.256.106,1.779,1.779,0,0,0-.137.244A4.65,4.65,0,0,1,11.48,20Z" transform="translate(0.512 0.5)" fill="#a9a7a8" stroke="rgba(0,0,0,0)" stroke-width="1" opacity="0.5"/>
</svg>
