<svg xmlns="http://www.w3.org/2000/svg" width="27.557" height="24" viewBox="0 0 27.557 24">
  <path id="Path_18" data-name="Path 18" d="M27.557,8.718s-.543-.767-1.463-2.008c-.566-.763-2.843-3.428-2.843-3.428L17.489.293l-.582,1.633L20,4.84a5.406,5.406,0,0,0-.866,3.2c.311,1.424,2.757,3.878,2.757,3.878L23.676,10.8V19.82a1.171,1.171,0,1,1-2.342,0V16.8a4.185,4.185,0,0,0-4.18-4.18H15.016V4.688A4.585,4.585,0,0,0,10.837.1C10.013.037,9.156,0,8.273,0S6.533.037,5.71.1A4.585,4.585,0,0,0,1.531,4.688V19.259L0,20.368v3.324H16.546V20.368l-1.531-1.109V15.63h2.138A1.173,1.173,0,0,1,18.325,16.8V19.82a4.18,4.18,0,1,0,8.359,0V9.335ZM22.172,10.1A7.7,7.7,0,0,1,20.514,7.74,2.953,2.953,0,0,1,21.055,6L23.17,9.455ZM5.889,17.285l1.451-6.13H4.348l6.309-7.834L9.207,9.451H12.2Z" transform="translate(0 -0.001)" fill="#a9a7a8"/>
</svg>
